# xmcd CD database file
#
# Track frame offsets:
#	150
#	13650
#	28640
#	45840
#	54487
#	72585
#	84545
#	104847
#	115022
#	132485
#	152805
#	165912
#
# Disc length: 2399 seconds
#
# Revision: 0
# Processed by: cddbd v1.5.1PL2 Copyright (c) Steve Scherf et al.
# Submitted via: CDex 1.60beta1
#
DISCID=98095d0c
DTITLE=NSP - ２年目の扉
DYEAR=1975
DGENRE=JPop
TTITLE0=春をみつけた
TTITLE1=１７才の詩
TTITLE2=都会
TTITLE3=北国の三月
TTITLE4=リズムもよろしく
TTITLE5=お茶の一服
TTITLE6=君を誘惑
TTITLE7=スープ・イン・ザ・モーニング
TTITLE8=お休みの風景
TTITLE9=あの娘と日曜日
TTITLE10=ねぼけまなこのスーパーマン
TTITLE11=押したおしたい
EXTD=YEAR: 1975
EXTT0=
EXTT1=
EXTT2=
EXTT3=
EXTT4=
EXTT5=
EXTT6=
EXTT7=
EXTT8=
EXTT9=
EXTT10=
EXTT11=
PLAYORDER=
